<?xml version="1.0" encoding="UTF-8"?>
<svg height="16px" viewBox="0 0 16 16" width="16px" xmlns="http://www.w3.org/2000/svg">
    <g fill="currentColor">
        <path d="m 2 2 h 12 v 3 h -12 z m 1 1 v 1 h 10 v -1 z m 9 0.25 a 0.75 0.75 0 0 1 0 1.5 a 0.75 0.75 0 0 1 0 -1.5 z"/>
        <path d="m 2 6 h 12 v 3 h -12 z m 1 1 v 1 h 10 v -1 z m 9 0.25 a 0.75 0.75 0 0 1 0 1.5 a 0.75 0.75 0 0 1 0 -1.5 z"/>
        <path d="m 2 10 h 12 v 3 h -12 z m 1 1 v 1 h 10 v -1 z m 9 0.25 a 0.75 0.75 0 0 1 0 1.5 a 0.75 0.75 0 0 1 0 -1.5 z"/>
    </g>
</svg>
