<?xml version="1.0" encoding="UTF-8"?>
<svg height="16px" viewBox="0 0 16 16" width="16px" xmlns="http://www.w3.org/2000/svg">
    <g fill="currentColor">
        <path d="m 6.5 0 l -0.5 2 c -0.5 0.2 -1 0.4 -1.4 0.7 l -1.9 -0.7 l -1.5 2.6 l 1.4 1.4 c -0.1 0.3 -0.1 0.7 -0.1 1 s 0 0.7 0.1 1 l -1.4 1.4 l 1.5 2.6 l 1.9 -0.7 c 0.4 0.3 0.9 0.5 1.4 0.7 l 0.5 2 h 3 l 0.5 -2 c 0.5 -0.2 1 -0.4 1.4 -0.7 l 1.9 0.7 l 1.5 -2.6 l -1.4 -1.4 c 0.1 -0.3 0.1 -0.7 0.1 -1 s 0 -0.7 -0.1 -1 l 1.4 -1.4 l -1.5 -2.6 l -1.9 0.7 c -0.4 -0.3 -0.9 -0.5 -1.4 -0.7 l -0.5 -2 z m 1.5 5 c 1.7 0 3 1.3 3 3 s -1.3 3 -3 3 s -3 -1.3 -3 -3 s 1.3 -3 3 -3 z"/>
        <path d="m 6 6.5 l 4 1.5 l -4 1.5 z"/>
    </g>
</svg>
