<?xml version="1.0" encoding="UTF-8"?>
<svg height="16px" viewBox="0 0 16 16" width="16px" xmlns="http://www.w3.org/2000/svg">
    <g fill="currentColor">
        <path d="m 8 1 c -3.866 0 -7 3.134 -7 7 s 3.134 7 7 7 s 7 -3.134 7 -7 s -3.134 -7 -7 -7 z m 0 1.5 c 3.038 0 5.5 2.462 5.5 5.5 s -2.462 5.5 -5.5 5.5 s -5.5 -2.462 -5.5 -5.5 s 2.462 -5.5 5.5 -5.5 z"/>
        <path d="m 8 4 c -1.5 0 -2.5 1 -2.5 2.5 h 1.5 c 0 -0.5 0.5 -1 1 -1 s 1 0.5 1 1 c 0 0.75 -0.5 1 -1 1.5 s -0.5 1 -0.5 1.5 h 1.5 c 0 -0.5 0 -1 0.5 -1.5 s 1.5 -1 1.5 -2 c 0 -1.5 -1.5 -2.5 -3 -2.5 z"/>
        <circle cx="8" cy="12" r="0.75"/>
    </g>
</svg>
